<svg xmlns="http://www.w3.org/2000/svg" version="1.1" xmlns:xlink="http://www.w3.org/1999/xlink" xmlns:svgjs="http://svgjs.com/svgjs" width="1440" height="560" preserveAspectRatio="none" viewBox="0 0 1440 560"><g mask="url(&quot;#SvgjsMask1192&quot;)" fill="none"><rect width="1440" height="560" x="0" y="0" fill="url(#SvgjsLinearGradient1193)"></rect><path d="M1440 0L1348.1 0L1440 106.94z" fill="rgba(255, 255, 255, .1)"></path><path d="M1348.1 0L1440 106.94L1440 147.42L1176.6599999999999 0z" fill="rgba(255, 255, 255, .075)"></path><path d="M1176.6599999999999 0L1440 147.42L1440 193.20999999999998L746.4099999999999 0z" fill="rgba(255, 255, 255, .05)"></path><path d="M746.41 0L1440 193.20999999999998L1440 248.83999999999997L234.97999999999996 0z" fill="rgba(255, 255, 255, .025)"></path><path d="M0 560L419.87 560L0 480.42z" fill="rgba(0, 0, 0, .1)"></path><path d="M0 480.42L419.87 560L896.65 560L0 389.16z" fill="rgba(0, 0, 0, .075)"></path><path d="M0 389.15999999999997L896.65 560L1192.04 560L0 310.9z" fill="rgba(0, 0, 0, .05)"></path><path d="M0 310.9L1192.04 560L1288.49 560L0 246.05999999999997z" fill="rgba(0, 0, 0, .025)"></path></g><defs><mask id="SvgjsMask1192"><rect width="1440" height="560" fill="#ffffff"></rect></mask><linearGradient x1="15.28%" y1="-39.29%" x2="84.72%" y2="139.29%" gradientUnits="userSpaceOnUse" id="SvgjsLinearGradient1193"><stop stop-color="rgba(0, 0, 0, 1)" offset="0"></stop><stop stop-color="rgba(51, 33, 121, 1)" offset="1"></stop></linearGradient></defs></svg>