<?xml version="1.0" standalone="no"?>
<svg xmlns:xlink="http://www.w3.org/1999/xlink" id="wave" style="transform:rotate(0deg); transition: 0.3s" viewBox="0 0 1440 230" version="1.1" xmlns="http://www.w3.org/2000/svg"><defs><linearGradient id="sw-gradient-0" x1="0" x2="0" y1="1" y2="0"><stop stop-color="rgba(255, 255, 255, 0.1)" offset="0%"/><stop stop-color="rgba(255, 255, 255, 0.1)" offset="100%"/></linearGradient></defs><path style="transform:translate(0, 0px); opacity:1" fill="url(#sw-gradient-0)" d="M0,207L40,195.5C80,184,160,161,240,141.8C320,123,400,107,480,103.5C560,100,640,107,720,118.8C800,130,880,146,960,130.3C1040,115,1120,69,1200,61.3C1280,54,1360,84,1440,99.7C1520,115,1600,115,1680,107.3C1760,100,1840,84,1920,92C2000,100,2080,130,2160,138C2240,146,2320,130,2400,115C2480,100,2560,84,2640,80.5C2720,77,2800,84,2880,99.7C2960,115,3040,138,3120,126.5C3200,115,3280,69,3360,42.2C3440,15,3520,8,3600,30.7C3680,54,3760,107,3840,118.8C3920,130,4000,100,4080,99.7C4160,100,4240,130,4320,153.3C4400,176,4480,192,4560,187.8C4640,184,4720,161,4800,141.8C4880,123,4960,107,5040,84.3C5120,61,5200,31,5280,34.5C5360,38,5440,77,5520,111.2C5600,146,5680,176,5720,191.7L5760,207L5760,230L5720,230C5680,230,5600,230,5520,230C5440,230,5360,230,5280,230C5200,230,5120,230,5040,230C4960,230,4880,230,4800,230C4720,230,4640,230,4560,230C4480,230,4400,230,4320,230C4240,230,4160,230,4080,230C4000,230,3920,230,3840,230C3760,230,3680,230,3600,230C3520,230,3440,230,3360,230C3280,230,3200,230,3120,230C3040,230,2960,230,2880,230C2800,230,2720,230,2640,230C2560,230,2480,230,2400,230C2320,230,2240,230,2160,230C2080,230,2000,230,1920,230C1840,230,1760,230,1680,230C1600,230,1520,230,1440,230C1360,230,1280,230,1200,230C1120,230,1040,230,960,230C880,230,800,230,720,230C640,230,560,230,480,230C400,230,320,230,240,230C160,230,80,230,40,230L0,230Z"/><defs><linearGradient id="sw-gradient-1" x1="0" x2="0" y1="1" y2="0"><stop stop-color="rgba(255, 255, 255, 0.2)" offset="0%"/><stop stop-color="rgba(255, 255, 255, 0.2)" offset="100%"/></linearGradient></defs><path style="transform:translate(0, 50px); opacity:0.9" fill="url(#sw-gradient-1)" d="M0,115L40,115C80,115,160,115,240,126.5C320,138,400,161,480,141.8C560,123,640,61,720,49.8C800,38,880,77,960,99.7C1040,123,1120,130,1200,145.7C1280,161,1360,184,1440,191.7C1520,199,1600,192,1680,187.8C1760,184,1840,184,1920,157.2C2000,130,2080,77,2160,49.8C2240,23,2320,23,2400,30.7C2480,38,2560,54,2640,80.5C2720,107,2800,146,2880,161C2960,176,3040,169,3120,153.3C3200,138,3280,115,3360,122.7C3440,130,3520,169,3600,184C3680,199,3760,192,3840,164.8C3920,138,4000,92,4080,95.8C4160,100,4240,153,4320,161C4400,169,4480,130,4560,130.3C4640,130,4720,169,4800,187.8C4880,207,4960,207,5040,199.3C5120,192,5200,176,5280,161C5360,146,5440,130,5520,126.5C5600,123,5680,130,5720,134.2L5760,138L5760,230L5720,230C5680,230,5600,230,5520,230C5440,230,5360,230,5280,230C5200,230,5120,230,5040,230C4960,230,4880,230,4800,230C4720,230,4640,230,4560,230C4480,230,4400,230,4320,230C4240,230,4160,230,4080,230C4000,230,3920,230,3840,230C3760,230,3680,230,3600,230C3520,230,3440,230,3360,230C3280,230,3200,230,3120,230C3040,230,2960,230,2880,230C2800,230,2720,230,2640,230C2560,230,2480,230,2400,230C2320,230,2240,230,2160,230C2080,230,2000,230,1920,230C1840,230,1760,230,1680,230C1600,230,1520,230,1440,230C1360,230,1280,230,1200,230C1120,230,1040,230,960,230C880,230,800,230,720,230C640,230,560,230,480,230C400,230,320,230,240,230C160,230,80,230,40,230L0,230Z"/></svg>